# xmcd CD database file
#
# Track frame offsets:
#	150
#	17787
#	33402
#	35280
#	62566
#
# Disc length: 1094 seconds
#
# Revision: 1
# Processed by: cddbd v1.5.2PL0 Copyright (c) Steve Scherf et al.
# Submitted via: CDex 1.70beta2
#
DISCID=35044405
DTITLE=Last Alliance - DAZE and HOPE
DYEAR=2006
DGENRE=Punk Rock
TTITLE0=疾走
TTITLE1=Fly again Hero
TTITLE2=一刀旅団
TTITLE3=One Drop Of Tear
TTITLE4=ボーナストラック
EXTD=YEAR: 2006
EXTT0=
EXTT1=
EXTT2=
EXTT3=
EXTT4=
PLAYORDER=
